<svg id="Capa_1" data-name="Capa 1" xmlns="http://www.w3.org/2000/svg" viewBox="0 0 118.12 118.12"><defs><style>.cls-1{fill:none;stroke:#fff;stroke-miterlimit:10;stroke-width:5px;}.cls-2{font-size:32.28px;fill:#fff;font-family:AveriaSerif-Regular, Averia Serif;}</style></defs><path class="cls-1" d="M12.5,2.5H59.06a0,0,0,0,1,0,0V59.06a0,0,0,0,1,0,0H2.5a0,0,0,0,1,0,0V12.5A10,10,0,0,1,12.5,2.5Z"/><path class="cls-1" d="M59.06,2.5h46.56a10,10,0,0,1,10,10V49.06a10,10,0,0,1-10,10H59.06a0,0,0,0,1,0,0V2.5a0,0,0,0,1,0,0Z"/><path class="cls-1" d="M2.5,59.06H59.06a0,0,0,0,1,0,0v46.56a10,10,0,0,1-10,10H12.5a10,10,0,0,1-10-10V59.06A0,0,0,0,1,2.5,59.06Z"/><text class="cls-2" transform="translate(22.03 42.17)">1</text><text class="cls-2" transform="translate(81.32 42.17)">2</text><text class="cls-2" transform="translate(19.51 97.42)">A</text></svg>