<svg id="Capa_1" data-name="Capa 1" xmlns="http://www.w3.org/2000/svg" viewBox="0 0 100.39 133.61"><defs><style>.cls-1{fill:none;stroke:#fff;stroke-miterlimit:10;stroke-width:8px;}.cls-2{font-size:55px;fill:#fff;font-family:FiraCode-Bold, Fira Code;font-weight:700;}</style></defs><path class="cls-1" d="M10.47,4h62A23.87,23.87,0,0,1,96.39,27.87v84.86a6.47,6.47,0,0,1-6.47,6.47H10.47A6.47,6.47,0,0,1,4,112.73V10.47A6.47,6.47,0,0,1,10.47,4Z"/><path class="cls-1" d="M86.52,6.4H81.36v18A6.53,6.53,0,0,0,87.89,31h22.3v-.9A23.68,23.68,0,0,0,86.52,6.4Z" transform="translate(-13.81 -2.4)"/><text class="cls-2" transform="translate(16.35 54.12) scale(1 1.01)">01<tspan x="0" y="50.5">10</tspan></text></svg>