<svg id="Capa_1" data-name="Capa 1" xmlns="http://www.w3.org/2000/svg" viewBox="0 0 104.97 101.72"><defs><style>.cls-1{fill:none;stroke-width:8px;}.cls-1,.cls-2{stroke:#fff;}.cls-2{fill:#fff;stroke-miterlimit:10;}</style></defs><rect class="cls-1" x="4" y="15.24" width="96.97" height="82.48" rx="10"/><rect class="cls-2" x="4.98" y="15.24" width="95" height="18.52"/><rect class="cls-2" x="44.68" y="43.25" width="11.77" height="11.77" rx="5"/><rect class="cls-2" x="61.4" y="43.25" width="11.77" height="11.77" rx="5"/><rect class="cls-2" x="78.12" y="43.25" width="11.77" height="11.77" rx="5"/><rect class="cls-2" x="78.12" y="59.03" width="11.77" height="11.77" rx="5"/><rect class="cls-2" x="61.4" y="59.03" width="11.77" height="11.77" rx="5"/><rect class="cls-2" x="44.68" y="59.03" width="11.77" height="11.77" rx="5"/><rect class="cls-2" x="27.96" y="59.03" width="11.77" height="11.77" rx="5"/><rect class="cls-2" x="78.12" y="74.82" width="11.77" height="11.77" rx="5"/><rect class="cls-2" x="61.4" y="74.82" width="11.77" height="11.77" rx="5"/><rect class="cls-2" x="44.68" y="74.82" width="11.77" height="11.77" rx="5"/><rect class="cls-2" x="27.96" y="74.82" width="11.77" height="11.77" rx="5"/><rect class="cls-2" x="17.36" y="0.91" width="9.66" height="21.79" rx="2.68"/><rect class="cls-2" x="77.94" y="0.5" width="9.66" height="21.79" rx="2.68"/></svg>