<svg id="Capa_1" data-name="Capa 1" xmlns="http://www.w3.org/2000/svg" viewBox="0 0 122.3 122.3"><defs><style>.cls-1{fill:none;stroke:#fff;stroke-miterlimit:10;stroke-width:10px;}.cls-2{fill:#fff;}</style></defs><polyline class="cls-1" points="34.04 61.8 51.68 79.44 88.26 42.86"/><path class="cls-2" d="M89.64,14.68h0a12.88,12.88,0,0,0,15.19,11.6h0c11.91-2.22,20,11.74,12.18,21h0a12.87,12.87,0,0,0,2.53,18.94h0c10,6.85,5.85,22.45-6.22,23.44h0a12.88,12.88,0,0,0-11.6,15.19h0c2.22,11.91-11.74,20-21,12.18h0a12.87,12.87,0,0,0-18.94,2.53h0c-6.85,10-22.45,5.85-23.44-6.22h0a12.88,12.88,0,0,0-15.19-11.6h0C11.26,103.94,3.16,90,11,80.74h0A12.87,12.87,0,0,0,8.46,61.8h0c-10-6.85-5.85-22.45,6.22-23.44h0a12.88,12.88,0,0,0,11.6-15.19h0C24.06,11.26,38,3.16,47.26,11h0A12.87,12.87,0,0,0,66.2,8.46h0C73.05-1.53,88.65,2.61,89.64,14.68ZM64,19.46a45,45,0,1,0,45,45.05A45,45,0,0,0,64,19.46Z" transform="translate(-2.85 -2.85)"/></svg>