<svg id="Capa_1" data-name="Capa 1" xmlns="http://www.w3.org/2000/svg" viewBox="0 0 121.03 101.26"><defs><style>.cls-1{fill:#fff;}</style></defs><path class="cls-1" d="M13.21,96.41,30.49,79.76c5.23-5-2.73-13-7.95-8L5.26,88.46c-5.23,5,2.73,13,8,8Z" transform="translate(-3.49 -13.37)"/><path class="cls-1" d="M30.49,105.07,13.21,88.42c-5.22-5-13.18,2.92-8,8L22.54,113c5.22,5,13.18-2.92,8-8Z" transform="translate(-3.49 -13.37)"/><path class="cls-1" d="M9.23,98.06H91.14c7.24,0,7.25-11.25,0-11.25H9.23C2,86.81,2,98.06,9.23,98.06Z" transform="translate(-3.49 -13.37)"/><path class="cls-1" d="M91.14,98.06c21.27.32,37.61-17.92,32.4-39.16-1.73-7-12.58-4-10.85,3,3.5,14.27-7.75,25.12-21.55,24.92-7.24-.11-7.25,11.14,0,11.25Z" transform="translate(-3.49 -13.37)"/><path class="cls-1" d="M114.79,31.59,97.51,48.24c-5.23,5,2.73,13,7.95,7.95l17.28-16.65c5.23-5-2.73-13-7.95-7.95Z" transform="translate(-3.49 -13.37)"/><path class="cls-1" d="M97.51,22.93l17.28,16.65c5.22,5,13.18-2.92,7.95-8L105.46,15c-5.22-5-13.18,2.92-7.95,8Z" transform="translate(-3.49 -13.37)"/><path class="cls-1" d="M118.77,29.94H36.86c-7.24,0-7.25,11.25,0,11.25h81.91c7.24,0,7.25-11.25,0-11.25Z" transform="translate(-3.49 -13.37)"/><path class="cls-1" d="M36.86,29.94C15.59,29.62-.75,47.86,4.46,69.1c1.73,7,12.58,4.05,10.85-3C11.81,51.84,23.06,41,36.86,41.19c7.24.11,7.25-11.14,0-11.25Z" transform="translate(-3.49 -13.37)"/></svg>