<svg id="Capa_1" data-name="Capa 1" xmlns="http://www.w3.org/2000/svg" viewBox="0 0 124.42 125.18"><defs><style>.cls-1,.cls-2{fill:none;stroke:#fff;stroke-miterlimit:10;}.cls-1{stroke-width:6px;}.cls-2{stroke-width:0.75px;}</style></defs><path class="cls-1" d="M65.68,4.41h-7a4.65,4.65,0,0,0-4.57,3.77L53,13.7a4.65,4.65,0,0,1-2.79,3.42L44,19.7a4.67,4.67,0,0,1-4.55-.56L33.78,15a4.64,4.64,0,0,0-6.06.45l-9.84,9.84a4.65,4.65,0,0,0-.61,5.83l4.38,6.73a4.66,4.66,0,0,1,.41,4.3l-2.28,5.59a4.67,4.67,0,0,1-3.5,2.83L8.64,51.86a4.65,4.65,0,0,0-3.85,4.58V70.16a4.65,4.65,0,0,0,3.52,4.52l7.78,1.95a4.64,4.64,0,0,1,3.09,2.56L21.88,85a4.66,4.66,0,0,1-.35,4.54l-3.79,5.69a4.66,4.66,0,0,0,.35,5.62l9.2,10.65a4.66,4.66,0,0,0,6.38.64l5.63-4.37a4.65,4.65,0,0,1,4.82-.54l6.27,2.92A4.65,4.65,0,0,1,53,113.83l.7,5.67a4.66,4.66,0,0,0,4.62,4.09h9.91" transform="translate(-1.79 -1.41)"/><path class="cls-1" d="M62.32,4.41h7a4.65,4.65,0,0,1,4.57,3.77L75,13.7a4.65,4.65,0,0,0,2.79,3.42L84,19.7a4.67,4.67,0,0,0,4.55-.56L94.22,15a4.64,4.64,0,0,1,6.06.45l9.84,9.84a4.65,4.65,0,0,1,.61,5.83l-4.38,6.73a4.66,4.66,0,0,0-.41,4.3l2.28,5.59a4.67,4.67,0,0,0,3.5,2.83l7.64,1.34a4.65,4.65,0,0,1,3.85,4.58V70.16a4.65,4.65,0,0,1-3.52,4.52l-7.78,1.95a4.64,4.64,0,0,0-3.09,2.56L106.12,85a4.66,4.66,0,0,0,.35,4.54l3.79,5.69a4.66,4.66,0,0,1-.35,5.62l-9.2,10.65a4.66,4.66,0,0,1-6.38.64L88.7,107.8a4.65,4.65,0,0,0-4.82-.54l-6.27,2.92A4.65,4.65,0,0,0,75,113.83l-.7,5.67a4.66,4.66,0,0,1-4.62,4.09H59.24" transform="translate(-1.79 -1.41)"/><rect class="cls-1" x="32.89" y="33.09" width="58.99" height="58.99" rx="2.89"/><rect class="cls-1" x="48.38" y="55.46" width="28" height="24.25" rx="1.45"/><rect class="cls-1" x="32.89" y="33.09" width="58.99" height="10.43" rx="2.03"/><circle class="cls-2" cx="85.08" cy="38.31" r="1.88"/></svg>