<?xml version="1.0" encoding="utf-8"?>
<!-- Generator: Adobe Illustrator 25.2.1, SVG Export Plug-In . SVG Version: 6.00 Build 0)  -->
<svg version="1.1" id="Capa_1" xmlns="http://www.w3.org/2000/svg" xmlns:xlink="http://www.w3.org/1999/xlink" x="0px" y="0px"
	 viewBox="0 0 1024 1024" style="enable-background:new 0 0 1024 1024;" xml:space="preserve">
<style type="text/css">
	.st0{fill:#3157A4;}
	.st1{fill:#4F903E;}
	.st2{fill:#D12D2B;}
	.st3{fill:#FAB314;}
</style>
<path class="st0" d="M520.27,683.27H50c-27.61,0-50-22.39-50-50V222.71C0,162.12,49.12,113,109.71,113h410.56
	c27.61,0,50,22.39,50,50v470.27C570.27,660.88,547.88,683.27,520.27,683.27z"/>
<path class="st1" d="M974,683.27H620.27c-27.61,0-50-22.39-50-50V163c0-27.61,22.39-50,50-50h294.03
	c60.59,0,109.71,49.12,109.71,109.71v410.56C1024,660.88,1001.61,683.27,974,683.27z"/>
<path class="st2" d="M914.29,911H620.27c-27.61,0-50-22.39-50-50V733.27c0-27.61,22.39-50,50-50H974c27.61,0,50,22.39,50,50v68.03
	C1024,861.88,974.88,911,914.29,911z"/>
<path class="st3" d="M520.27,911H109.71C49.12,911,0,861.88,0,801.29v-68.03c0-27.61,22.39-50,50-50h470.27c27.61,0,50,22.39,50,50
	V861C570.27,888.61,547.88,911,520.27,911z"/>
</svg>
